<?xml version="1.0" encoding="utf-8"?>
<!-- Generator: Adobe Illustrator 24.0.1, SVG Export Plug-In . SVG Version: 6.00 Build 0)  -->
<svg version="1.1" id="Layer_1" xmlns="http://www.w3.org/2000/svg" xmlns:xlink="http://www.w3.org/1999/xlink" x="0px" y="0px"
	 viewBox="0 0 600 600" style="enable-background:new 0 0 600 600;" xml:space="preserve">
<style type="text/css">
	.st0{fill:#112C4E;}
</style>
<g>
	<path class="st0" d="M137.7,446.6c-3.4-3.4-5-7.6-5-12.9c0-4.5,2.2-9.3,6.7-14.6c20.1-24.6,35.4-48.1,45.9-70.5
		c10.4-22.4,15.7-41.8,15.7-58.2c0-6-0.9-10.2-2.8-12.9c-1.9-2.6-5.4-3.9-10.6-3.9c-16.4,0-29.7-5.6-39.7-16.8
		c-10.1-11.2-15.1-26.5-15.1-45.9c0-17.9,6-32.8,17.9-44.8c11.9-11.9,26.9-17.9,44.8-17.9c20.9,0,37.5,7.8,49.8,23.5
		s18.5,37.3,18.5,64.9c0,32.8-8,67.3-24.1,103.5c-16.1,36.2-40.1,70.3-72.2,102.4c-6,6-11.6,9-16.8,9
		C145.4,451.6,141.1,450,137.7,446.6z M341.4,446.6c-3.4-3.4-5-7.6-5-12.9c0-4.5,2.2-9.3,6.7-14.6c20.1-24.6,35.4-48.1,45.9-70.5
		c10.4-22.4,15.7-41.8,15.7-58.2c0-6-0.9-10.2-2.8-12.9c-1.9-2.6-5.4-3.9-10.6-3.9c-16.4,0-29.7-5.6-39.7-16.8
		c-10.1-11.2-15.1-26.5-15.1-45.9c0-17.9,6-32.8,17.9-44.8c11.9-11.9,26.9-17.9,44.8-17.9c20.9,0,37.5,7.8,49.8,23.5
		s18.5,37.3,18.5,64.9c0,32.8-8,67.3-24.1,103.5c-16.1,36.2-40.1,70.3-72.2,102.4c-6,6-11.6,9-16.8,9
		C349,451.6,344.8,450,341.4,446.6z"/>
</g>
</svg>
