<?xml version="1.0" encoding="utf-8"?>
<!-- Generator: Adobe Illustrator 24.0.1, SVG Export Plug-In . SVG Version: 6.00 Build 0)  -->
<svg version="1.1" id="Layer_1" xmlns="http://www.w3.org/2000/svg" xmlns:xlink="http://www.w3.org/1999/xlink" x="0px" y="0px"
	 viewBox="0 0 1200 500" style="enable-background:new 0 0 1200 500;" xml:space="preserve">
<style type="text/css">
	.st0{fill:#E42047;}
	.st1{fill:#F9E9DC;}
	.st2{fill:#102C4E;}
</style>
<g id="Group_11" transform="translate(138.166)">
	<path id="Path_75" class="st0" d="M249,225.2c-1.7,0-3.3-0.2-4.9-0.7l-26.7-7.9c-9.2-2.7-14.5-12.4-11.8-21.6v-0.1l29.9-99.2
		l-50.2,6.8c-0.8,0.1-1.6,0.2-2.3,0.2c-3.8,0-7.5-1.3-10.5-3.6c-3.7-2.8-6.1-6.9-6.7-11.5l-3.6-27.5c-1.3-9.5,5.4-18.2,14.9-19.5
		c0,0,0,0,0.1,0l78.5-10.3l4-13.4c2.2-7.3,9-12.4,16.6-12.4c1.7,0,3.4,0.2,5,0.7l26.7,8.2c4.4,1.3,8.1,4.3,10.2,8.4l8.5-1.1
		c0.8-0.1,1.5-0.2,2.3-0.2c8.7,0,16.1,6.4,17.2,15.1l3.6,27.5c1.3,9.5-5.4,18.2-14.9,19.5l0,0l-31.3,4.2l-38.1,126.1
		C263.4,220.2,256.6,225.2,249,225.2z"/>
	<path id="Path_76" class="st0" d="M290.3,71L249,207.8l-26.7-7.9l37.6-125L183,85.3l-3.6-27.5L269,46l7.3-24.1l26.7,8.2l-3.6,11.8
		l29.8-3.9l3.6,27.5L290.3,71z"/>
	<path id="Path_77" class="st0" d="M379,221.2c-11.1,0.2-21.9-4.2-29.5-12.4c-2.7-2.8-4.9-6-6.7-9.4l-3.1,9.8c-2.3,7.2-9,12-16.5,12
		H294c-5.6,0-10.8-2.7-14.1-7.1c-3.3-4.5-4.2-10.3-2.5-15.6l56.2-172.8c2.3-7.2,9-12,16.5-12h29.2c9.6,0,17.4,7.8,17.3,17.4
		c0,1.8-0.3,3.7-0.9,5.4L376.5,96c0.4,0.1,0.8,0.1,1.2,0.2c2.6,0.4,5.1,1.2,7.6,2.1c9.1,3.1,16.6,9.6,21,18.1
		c3.7,7.2,5.6,15.1,5.6,23.2c0,4.2-0.5,8.4-1.3,12.6c-0.4,2.1-0.9,4.2-1.6,6.4c9.6,0.6,16.9,8.8,16.3,18.4c-0.1,1.5-0.4,2.9-0.8,4.3
		l-9,27.8c-2.3,7.2-9,12-16.5,12L379,221.2L379,221.2L379,221.2z"/>
	<path id="Path_78" class="st0" d="M399,203.9h-20c-6.3,0.2-12.5-2.3-16.8-6.9c-4.2-4.3-6.5-10.1-6.5-16.1c0-0.7,0-1.4,0.2-2.1
		c0.1-0.7,0.1-1.4,0.2-2.1c0.2-0.6,0.4-1.2,0.5-1.8c0.2-0.7,0.4-1.4,0.5-2.1c0.5-1.9,1.2-3.8,2-5.8c0.7-2,1.4-4,2-6
		c0.4-0.7,0.7-1.5,1-2.3c0.3-0.7,0.5-1.4,0.7-2c0.9-2.6,1.8-5.1,2.4-7.6c0.7-2.4,1.2-4.8,1.6-7c-6.1,2.6-11.6,6.4-16.1,11.2
		c-5,5.1-9.5,10.8-13.3,16.8c-1.6,2.4-3.1,4.9-4.5,7.4c-1.3,2.5-2.5,4.9-3.4,7.1l-6.2,19.1H294L350.1,31h29.2L351,118.4
		c2.2-1.3,4.6-2.4,7-3.2c2.4-0.8,4.8-1.5,7.3-2.1c0.8,0,1.6-0.1,2.4-0.2c0.9-0.1,1.6-0.2,2.4-0.2c1.5,0,3.1,0.2,4.6,0.4
		c1.5,0.2,3,0.7,4.4,1.3c5.1,1.6,9.3,5.1,11.8,9.9c2.4,4.7,3.7,9.9,3.6,15.2c0,3.1-0.4,6.3-1,9.3c-0.8,3.7-1.8,7.3-3.2,10.7
		c-0.4,1.3-0.8,2.7-1.2,4.1c-0.5,1.4-0.9,2.8-1.3,4.1s-0.8,2.7-1.2,4.1c-0.5,1.4-0.9,2.8-1.3,4.1H408L399,203.9z"/>
	<path id="Path_79" class="st0" d="M432.4,221.2c-7.6,0-15-1.7-21.8-5c-7.7-3.7-13.9-9.8-17.9-17.3c-1.9-3.5-3.3-7.2-4.2-11.1
		c-0.9-3.7-1.3-7.4-1.3-11.2c0-1.4,0.1-2.7,0.3-4c0-0.5,0-1.1,0.1-1.6c0.5-5.1,1.6-10.1,3.1-14.9c1.3-4.2,2.8-8.2,4.3-11.9
		c0-0.1,0.1-0.2,0.2-0.4c4.3-10.1,10.3-19.4,17.9-27.4c6.4-6.8,13.9-12.4,22.2-16.7c3.3-1.8,6.8-3.4,10.3-4.6
		c3.4-1.1,6.8-2,10.3-2.5c1.4-0.2,3-0.4,4.5-0.5c1.7-0.1,3.3-0.2,5.2-0.2c11-0.1,21.7,3.3,30.6,9.7c10.4,7.3,16.5,19.3,16.2,32.1
		c0,2.6-0.2,5.1-0.7,7.7c-0.5,2.8-1.3,5.4-2.3,8.1c-1.1,3.3-2.6,6.5-4.4,9.4c9.5,1.2,16.2,9.9,15,19.4c-0.1,1.1-0.4,2.2-0.8,3.3
		l-9.2,27.8c-2.4,7.1-9,11.9-16.5,11.9L432.4,221.2z"/>
	<path id="Path_80" class="st0" d="M493.6,203.9h-61.2c-4.9,0-9.8-1.1-14.2-3.2c-4.4-2.1-8-5.6-10.3-9.9c-1.1-2.1-2-4.4-2.5-6.7
		c-0.5-2.4-0.8-4.9-0.9-7.3c0-0.6,0-1.2,0.2-1.8c0.1-0.7,0.1-1.4,0.2-2.1c0.4-3.9,1.2-7.7,2.4-11.4c1.2-3.9,2.5-7.4,3.8-10.5
		c3.4-8.2,8.3-15.8,14.5-22.3c5.1-5.5,11.2-10,17.9-13.3c2.5-1.4,5-2.6,7.7-3.5c2.4-0.8,4.9-1.4,7.4-1.8c1.1-0.2,2.3-0.3,3.4-0.4
		s2.3-0.2,3.6-0.2c7.4-0.1,14.5,2.2,20.5,6.4c5.9,4.1,9.2,10.8,9,18c0,1.6-0.1,3.1-0.4,4.6c-0.3,1.8-0.9,3.5-1.6,5.2
		c-2.1,5.6-5.2,10.9-9.2,15.3c-5.8,6.5-12.4,12.3-19.7,17.3H503L493.6,203.9z M448.4,144.3c-4.8,4.5-8.6,10-11.2,16
		c0,0.2,0,0.3-0.2,0.4c-0.1,0.1-0.1,0.3-0.2,0.4c7.1-3.9,13.7-8.6,19.8-13.9c3.7-3.1,6.8-6.8,9.4-10.8
		C459.4,136.8,453.1,139.6,448.4,144.3z"/>
</g>
<g id="Group_12" transform="translate(142.902 4.692)">
	<path id="Path_81" class="st1" d="M244.2,210.9c-0.8,0-1.5-0.1-2.2-0.3l-26.7-7.9c-2-0.6-3.6-1.9-4.6-3.8c-1-1.8-1.2-4-0.6-5.9
		l34.1-113.4l-65,8.8c-0.4,0-0.7,0.1-1.1,0.1c-1.7,0-3.4-0.6-4.7-1.6c-1.6-1.3-2.7-3.1-3-5.2l-3.6-27.5c-0.3-2,0.3-4.1,1.6-5.8
		c1.3-1.6,3.1-2.7,5.2-3l84.6-11.2l5.8-19.4c0.6-2,2-3.6,3.8-4.6c1.1-0.6,2.4-0.9,3.6-0.9c0.8,0,1.5,0.1,2.3,0.4l26.7,8.2
		c2,0.6,3.6,2,4.6,3.8s1.2,4,0.5,5.9l-0.1,0.2l17.7-2.3c0.3,0,0.7-0.1,1-0.1c3.9,0,7.2,2.9,7.7,6.8l3.6,27.5
		c0.6,4.2-2.4,8.2-6.6,8.7l0,0l-37.4,5l-39.7,131.9C250.7,208.6,247.7,210.9,244.2,210.9z"/>
	<path id="Path_82" class="st1" d="M285.5,66.3l-41.3,136.8l-26.7-7.9l37.6-125l-76.9,10.4l-3.6-27.5l89.6-11.8l7.3-24.1l26.7,8.2
		l-3.6,11.8l29.8-3.9l3.6,27.5L285.5,66.3z"/>
	<path id="Path_83" class="st1" d="M374.3,206.9c-8.5,0.3-16.7-3.1-22.5-9.3c-5.6-5.8-8.6-13.5-8.5-21.5c0-1.1,0.1-2.2,0.2-3.2
		c0-0.3,0-0.6,0-1c0-0.8,0.1-1.7,0.4-2.4c0.2-0.5,0.3-1,0.5-1.5c0.2-0.6,0.3-1.2,0.5-1.9c0.7-2.4,1.4-4.5,2.3-6.6
		c0.2-0.5,0.4-0.9,0.5-1.4c-3.1,3.6-6,7.4-8.5,11.5c-1.5,2.2-2.9,4.5-4.2,6.9c-1.2,2.2-2.1,4.4-3,6.3l-6.1,18.8
		c-1,3.2-4,5.4-7.4,5.4h-29.2c-2.5,0-4.8-1.2-6.3-3.2s-1.9-4.6-1.1-7L338.1,24c1-3.2,4-5.4,7.4-5.4h29.2c2.5,0,4.8,1.2,6.3,3.2
		s1.9,4.6,1.1,7l-23.4,72.1c0.1,0,0.2,0,0.2,0c0.6-0.1,1.2-0.2,1.8-0.2c0.5,0,1,0,1.5-0.1c1.2-0.1,2.3-0.2,3.3-0.2c2,0,4,0.2,6,0.5
		s3.9,0.9,5.8,1.7c6.9,2.3,12.6,7.1,15.9,13.6c3,5.8,4.5,12.3,4.5,18.8c0,3.6-0.4,7.2-1.1,10.8c-0.8,4-2,7.9-3.5,11.7
		c-0.4,1.3-0.8,2.6-1.2,4c-0.2,0.7-0.5,1.4-0.7,2.1h12.2c2.5,0,4.8,1.2,6.3,3.2s1.9,4.6,1.1,7l-9,27.8c-1,3.2-4,5.4-7.4,5.4
		L374.3,206.9L374.3,206.9z"/>
	<path id="Path_84" class="st1" d="M394.2,199.2h-20c-6.3,0.2-12.5-2.3-16.8-6.9c-4.2-4.3-6.5-10.1-6.5-16.1c0-0.7,0-1.4,0.2-2.1
		c0.1-0.7,0.1-1.4,0.2-2.1c0.2-0.6,0.4-1.2,0.5-1.8c0.2-0.7,0.4-1.4,0.5-2.1c0.5-1.9,1.2-3.8,2-5.8c0.7-2,1.4-4,2-6
		c0.4-0.7,0.7-1.5,1-2.3c0.3-0.7,0.5-1.4,0.7-2c0.9-2.6,1.8-5.1,2.4-7.6c0.7-2.4,1.2-4.8,1.6-7c-6.1,2.6-11.6,6.4-16.1,11.2
		c-5,5.1-9.5,10.8-13.3,16.8c-1.6,2.4-3.1,4.9-4.5,7.4c-1.3,2.5-2.5,4.9-3.4,7.1l-6.2,19.1h-29.2l56.2-172.8h29.2l-28.4,87.4
		c2.2-1.3,4.6-2.4,7-3.2c2.4-0.8,4.8-1.5,7.3-2.1c0.8,0,1.6-0.1,2.4-0.2c0.9-0.1,1.6-0.2,2.4-0.2c1.5,0,3.1,0.2,4.6,0.4
		c1.5,0.2,3,0.7,4.4,1.3c5.1,1.6,9.3,5.1,11.8,9.9c2.4,4.7,3.7,9.9,3.6,15.2c0,3.1-0.4,6.3-1,9.3c-0.8,3.7-1.8,7.3-3.2,10.7
		c-0.4,1.3-0.8,2.7-1.2,4.1c-0.5,1.4-0.9,2.8-1.3,4.1s-0.8,2.7-1.2,4.1c-0.5,1.4-0.9,2.8-1.3,4.1h22.7L394.2,199.2z"/>
	<path id="Path_85" class="st1" d="M427.6,206.9c-6.1,0-12.1-1.4-17.6-4c-5.9-2.9-10.6-7.5-13.7-13.3c-1.5-2.7-2.6-5.7-3.3-8.7
		c-0.7-3-1-6-1-9.1c0-1,0.1-2,0.2-3c0-0.3,0-0.6,0-1c0-0.3,0-0.5,0-0.8c0.4-4.4,1.4-8.7,2.7-12.9c1.2-4,2.6-7.7,4-11.1
		c3.8-9.1,9.3-17.5,16.1-24.8c5.7-6,12.4-11.1,19.8-14.8c2.8-1.6,5.8-3,8.9-4c2.8-0.9,5.8-1.7,8.7-2.1c1.3-0.2,2.6-0.3,3.9-0.5
		c1.4-0.1,2.8-0.2,4.4-0.2c9-0.1,17.8,2.7,25,7.9c7.9,5.5,12.5,14.7,12.2,24.3c0,2-0.2,4-0.5,6c-0.4,2.2-1,4.4-1.9,6.5
		c-2.4,6.5-6,12.5-10.6,17.7c-1.2,1.5-2.6,3-4.1,4.5h17.3c4.3,0,7.8,3.5,7.8,7.8c0,0.8-0.1,1.6-0.4,2.4l-9.3,27.8
		c-1.1,3.2-4,5.3-7.4,5.3L427.6,206.9L427.6,206.9L427.6,206.9z"/>
	<path id="Path_86" class="st1" d="M488.9,199.2h-61.2c-4.9,0-9.8-1.1-14.2-3.2c-4.4-2.1-8-5.6-10.3-9.9c-1.1-2.1-2-4.4-2.5-6.7
		c-0.5-2.4-0.8-4.9-0.9-7.3c0-0.6,0-1.2,0.2-1.8c0.1-0.7,0.1-1.4,0.2-2.1c0.4-3.9,1.2-7.7,2.4-11.4c1.2-3.9,2.5-7.4,3.8-10.5
		c3.4-8.2,8.3-15.8,14.5-22.3c5.1-5.5,11.2-10,17.9-13.3c2.5-1.4,5-2.6,7.7-3.5c2.4-0.8,4.9-1.4,7.4-1.8c1.1-0.2,2.3-0.3,3.4-0.4
		s2.3-0.2,3.6-0.2c7.4-0.1,14.5,2.2,20.5,6.4c5.9,4.1,9.2,10.8,9,18c0,1.6-0.1,3.1-0.4,4.6c-0.3,1.8-0.9,3.5-1.6,5.2
		c-2.1,5.6-5.2,10.9-9.2,15.3c-5.8,6.5-12.4,12.3-19.7,17.3h38.8L488.9,199.2z M443.7,139.6c-4.8,4.5-8.6,10-11.2,16
		c0,0.2,0,0.3-0.2,0.4c-0.1,0.1-0.1,0.3-0.2,0.4c7.1-3.9,13.7-8.6,19.8-13.9c3.7-3.1,6.8-6.8,9.4-10.8
		C454.7,132.1,448.4,134.9,443.7,139.6z"/>
</g>
<g id="Group_13" transform="translate(0 50.103)">
	<path id="Path_87" class="st0" d="M122.2,443c-3.8,0-7.6-1.3-10.6-3.6L81,415.8c-3.7-2.8-6.1-7-6.7-11.6s0.7-9.2,3.6-12.9
		c10-12.7,19.1-26.1,27.4-40c1.7-2.9,3.4-5.8,5.1-8.8c-2.6,0.2-5.1,0.3-7.7,0.3c-1.1,0-2.1,0-3.2,0c-4.6,0-9.2-0.2-13.8-0.7
		c-5.3-0.5-10.5-1.6-15.6-3.1c-13.6-3.2-25.8-10.5-35.2-20.9c-9.2-10.4-15.4-23-17.9-36.7c0-0.1-0.6-3.3-0.8-4.7
		c-0.3-1.8-0.6-3.6-0.6-5.5c-0.3-1.9-0.5-3.9-0.5-5.9v-8.5c0-2.2,0.2-4.4,0.5-6.5c2.5-26.4,12.7-52.3,30.4-77.1
		c16-22.5,34.8-43.1,55.7-61.1c6.2-5.4,12.5-10.5,18.7-15.2c6.3-4.8,12.5-9.1,18.4-12.7c0.2-0.2,0.5-0.3,0.7-0.4
		c0.9-0.7,1.9-1.3,2.9-1.8c7.9-4.9,16.1-9.3,24.5-13.3c9.4-4.4,19.2-7.7,29.3-9.9c0.1,0,0.3-0.1,0.5-0.1c3.1-0.6,6.1-1,9.1-1.5
		c3.6-0.5,7.3-0.8,10.9-0.8c7.3,0,14.6,1,21.6,3.1c7.5,2.2,14.5,5.8,20.7,10.7c7.6,5.3,13.6,12.5,17.6,20.9c3.4,7.4,5.1,15.5,5,23.6
		c0,2.7-0.2,5.3-0.5,7.9c-0.3,1.8-0.5,3.6-0.7,5.6c-0.1,0.5-0.2,1.1-0.3,1.7c-1.4,6-3.3,11.8-5.9,17.4c-2.4,5.2-5,10.2-8,15
		c-6.1,10.1-13.1,19.7-20.9,28.6c-8.9,10.3-18.5,20.1-28.7,29.1c-1.6,1.4-3.1,2.8-4.7,4.3l10.7,4c9,3.4,13.5,13.4,10.2,22.4l0,0
		c-12.2,32.1-25.9,64.2-40.9,95.5c-15.3,32-34.1,62.2-56.1,90.1C132.5,440.6,127.5,443,122.2,443z M89.7,268.5
		c1.8,0.4,3.4,0.6,5.1,0.9c1.5,0.2,3,0.4,4.6,0.4c10.3,0,20.4-3,29-8.7c10.3-6.6,20.2-13.9,29.5-21.9c0.2-0.3,0.4-0.5,0.6-0.8
		c0.6-1.7,1.3-3.4,1.9-5.1c1.1-2.9,2.2-5.7,3.2-8.5c0.2-0.7,0.5-1.4,0.9-2L148.9,204c-3-3.6-4.4-8.2-3.9-12.9
		c0.5-4.6,2.8-8.9,6.4-11.8c1.1-0.9,2.1-1.7,3-2.5c1.4-1.2,2.7-2.4,4.2-3.5c9.6-8.1,18.6-16.9,27.1-26.1c3-3.4,5.8-6.6,8.3-9.8
		c-0.5,0.3-0.9,0.5-1.3,0.8c-0.3,0.2-0.6,0.4-0.9,0.5c-2.6,1.4-5.2,2.9-7.6,4.4c-2.4,1.4-4.2,2.6-5.6,3.5c-0.3,0.2-0.7,0.4-1,0.6
		c-3.3,1.9-6.5,3.9-9.5,6.1c-3.4,2.4-6.9,5.1-10.3,7.8c-15.4,12.5-29.6,26.5-42.2,41.9c-12.4,15-20.8,30.6-24.8,46.4
		c0,0.2-0.1,0.3-0.1,0.5c-0.4,1.5-0.7,3-0.9,4.5c-0.3,2.1-0.6,4.1-0.8,6.2v2.3C88.8,264.7,89.1,266.6,89.7,268.5z"/>
	<path id="Path_88" class="st0" d="M232.2,179.6c-8.4,9.7-17.5,18.9-27.1,27.5c-2.9,2.6-5.8,5.2-8.8,7.9c-3,2.6-6.1,5.2-9.2,7.9
		L162.3,193c1.3-1.1,2.6-2.1,3.7-3.1c1.2-1.1,2.4-2.1,3.7-3.1c10.2-8.7,19.9-18,28.9-27.9c7.3-7.9,13.8-16.4,19.4-25.5
		c0.3-0.5,0.7-1.4,1.4-2.8c0.7-1.3,1.4-2.8,2.2-4.3c0.3-0.5,0.5-0.9,0.6-1.2c0.1-0.2,0.2-0.5,0.2-0.8c0.8-1.8,1.5-3.5,2.2-5.1
		c0.5-1.1,0.9-2.3,1-3.5v-0.4l-0.4-0.4c-1.1-1.1-2.4-1.8-3.9-2.2c-1.8-0.4-3.7-0.6-5.5-0.6c-2.9,0-5.8,0.4-8.6,1.2
		c-3.4,0.9-6.7,2.1-9.8,3.5c-2.4,0.8-4.8,1.8-7.1,3c-2.3,1.1-4.5,2.4-6.7,3.7c-2.9,1.6-5.6,3.2-8.2,4.7c-2.6,1.6-4.7,2.9-6.3,3.9
		c-3.6,2.1-7.4,4.5-11,7.1s-7.4,5.4-11,8.2c-16.4,13.2-31.4,28.1-44.8,44.4C88.1,208.9,78.7,226.6,74,245c-0.6,2.2-1.1,4.4-1.4,6.7
		c-0.4,2.6-0.7,5.2-1,7.9v3.1c0,4.8,0.9,9.6,2.8,14c1.8,4.3,5.6,7.5,10.2,8.5c2.6,0.5,5.2,1,7.7,1.4c2.4,0.4,4.8,0.6,7.3,0.6
		c13.6,0,26.9-4,38.3-11.4c11.7-7.4,22.8-15.8,33.2-24.9c0.3-0.5,0.6-1,1-1.4s0.9-0.7,1.4-1c1.1-2.9,2.2-5.8,3.3-8.9
		c1.2-3,2.3-6,3.3-8.9l36.5,13.8c-12.1,31.8-25.5,63.2-40.3,94.1s-32.9,60-54,86.9L91.5,402c10.4-13.3,20-27.3,28.7-41.8
		c8.6-14.5,16.6-29.3,24-44.2c-7,2.9-14.2,5.2-21.6,7.1c-7.4,1.8-15.1,2.6-22.8,2.4c-4.2,0-8.3-0.2-12.4-0.6
		c-4.3-0.4-8.6-1.3-12.8-2.6c-10.3-2.4-19.6-7.9-26.7-15.8c-7.1-8-11.9-17.8-13.8-28.3c-0.3-1.6-0.5-3.1-0.8-4.5s-0.4-2.7-0.4-4.1
		c-0.3-1.4-0.4-2.7-0.4-4.1V257c0-1.5,0.1-2.9,0.4-4.4C35,229,44.1,206,60.2,183.5c15.2-21.4,32.9-40.9,52.8-58.1
		c6-5.2,12-10.1,17.9-14.5c5.9-4.5,11.6-8.4,17.1-11.8c0.5-0.3,1.1-0.6,1.6-1s1-0.7,1.6-1c7.5-4.7,15.2-8.9,23.2-12.6
		c8.2-3.8,16.7-6.8,25.5-8.7c2.9-0.5,5.7-1,8.4-1.4c2.8-0.4,5.6-0.6,8.4-0.6c5.7,0,11.3,0.8,16.7,2.4c5.5,1.6,10.6,4.3,15.1,7.8
		c5.2,3.6,9.4,8.4,12.2,14.2c2.4,5.2,3.6,10.8,3.5,16.5c0,1.8-0.1,3.7-0.4,5.5s-0.5,3.8-0.8,5.9c-1.1,4.8-2.6,9.5-4.7,14
		s-4.4,8.9-7.1,13.2C245.8,162.7,239.3,171.4,232.2,179.6z"/>
	<path id="Path_89" class="st0" d="M269.1,332.5c-13.7,0.3-26.9-5.2-36.2-15.1c-8.9-9.3-13.8-21.6-13.7-34.5c0-1.8,0.1-3.7,0.4-5.5
		V277c0-1.9,0.3-3.7,0.9-5.4c0.2-0.6,0.4-1.2,0.6-1.9c0.2-0.7,0.4-1.5,0.6-2.4c0.1-0.4,0.2-0.7,0.3-1l26.7-83.7
		c2.3-7.2,9-12.1,16.6-12.1h20.2c-17.5-6.5-29.2-23.2-29.3-41.9c0-24.3,19.7-44.1,44.1-44.1s44.1,19.7,44.1,44.1
		c0.1,11.6-4.4,22.7-12.4,31c-5.3,5.7-12.1,9.8-19.7,11.9c8.9,3.1,13.8,12.7,10.9,21.7l-21,65.8h15.1c9.6,0,17.4,7.8,17.4,17.4
		c0,1.8-0.3,3.6-0.8,5.3l-12.6,38.9c-2.3,7.2-9,12-16.5,12L269.1,332.5L269.1,332.5L269.1,332.5z"/>
	<path id="Path_90" class="st0" d="M304.5,315.1h-35.4c-8.9,0.3-17.5-3.2-23.6-9.6c-5.9-6-9.1-14.2-9-22.6c0-1,0.1-2,0.2-3
		c0.1-1,0.2-2,0.2-3c0.3-0.8,0.5-1.6,0.8-2.6c0.3-0.9,0.5-1.9,0.8-3l26.7-83.7h41.2L278.1,276H317L304.5,315.1z M319.3,147.6
		c-10.1,10.5-26.8,10.8-37.2,0.7c-0.2-0.2-0.4-0.4-0.7-0.7c-5.1-5-7.9-11.9-7.9-19.1c0-14.8,12.1-26.8,26.9-26.7
		c7.1,0,13.9,2.8,18.9,7.9c5,5,7.8,11.8,7.7,18.9C327,135.6,324.2,142.5,319.3,147.6L319.3,147.6z"/>
	<path id="Path_91" class="st0" d="M432.6,332.5c-26.4,0.6-48.4-19.8-49.9-46.1c-1.4,2.6-2.6,5.3-3.7,8l-8.5,26.1
		c-2.3,7.2-9,12-16.5,12h-40.9c-9.6,0-17.4-7.8-17.4-17.4c0-1.8,0.3-3.6,0.8-5.3l41.2-127.3c2.3-7.2,9-12,16.5-12h40.9
		c3.2,0,6.3,0.9,9,2.5c0.7-0.2,1.5-0.3,2.3-0.5c2.3-0.7,4.6-1.1,7-1.4c2-0.2,4.1-0.3,6.1-0.3c3.2,0,6.4,0.3,9.5,0.9
		c3.2,0.6,6.3,1.4,9.3,2.6c11.1,3.7,20.3,11.6,25.7,22c4.7,9,7.1,19.1,7.1,29.2c0,5.4-0.6,10.9-1.7,16.2c-1.2,5.8-2.8,11.5-4.7,17.1
		c0,0,0,0,0,0.1h8c9.6,0,17.4,7.8,17.3,17.4c0,1.9-0.3,3.7-0.9,5.5l-13,38.9c-2.4,7.1-9,11.9-16.5,11.9L432.6,332.5L432.6,332.5z"/>
	<path id="Path_92" class="st0" d="M459.7,315.2h-27.1c-8.8,0.3-17.4-3.1-23.6-9.5c-5.9-6.1-9.2-14.3-9-22.8c0-1.9,0.2-3.8,0.6-5.7
		c0.4-2,0.9-3.9,1.4-5.7c0.5-1.8,1-3.6,1.6-5.3c0.5-1.7,1-3.3,1.5-4.9c1-3.4,2.1-6.8,3.1-10.2s2.1-6.8,3.1-10.2
		c0.3-0.5,0.5-1,0.6-1.6c0.1-0.5,0.2-1,0.2-1.6c0.5-1.4,1-2.9,1.4-4.3c0.4-1.6,0.7-3.1,1-4.7c-2.6,1.1-5.1,2.4-7.5,3.9
		c-3.1,2-6,4.2-8.6,6.7c-7.7,6.7-14.6,14.2-20.6,22.4c-6.2,8.2-11.3,17.2-15.1,26.7l-8.6,26.7h-40.9l41.2-127.4h40.9l-2.8,8.2
		c2.9-1.6,5.8-2.9,8.8-4.1c3-1.2,6.1-2,9.2-2.6c1.5-0.5,3-0.8,4.5-1c1.4-0.1,3-0.2,4.5-0.2c2.2,0,4.4,0.2,6.5,0.6
		c2.1,0.4,4.1,0.9,6.1,1.8c7.1,2.2,13.1,7.2,16.5,13.8s5.1,13.8,5.1,21.2c0,4.3-0.5,8.6-1.4,12.8c-1,5-2.4,9.9-4.1,14.7
		c-0.8,1.9-1.5,3.8-2,5.7c-0.5,2-1,3.9-1.6,5.7c-0.3,0.8-0.5,1.5-0.8,2.2c-0.2,0.5-0.4,1.1-0.4,1.8c-0.5,1.3-0.9,2.6-1.2,3.9
		c-0.3,1.3-0.7,2.6-1.2,3.9h31.5L459.7,315.2z"/>
	<path id="Path_93" class="st0" d="M513.2,332.5c-9.9,0-19.7-2.3-28.5-6.9c-9.4-4.9-17.1-12.6-21.9-22.1c-2.3-4.5-4-9.3-5-14.3
		c-0.9-4.4-1.3-8.9-1.3-13.4c0-8.3,1.3-16.5,3.7-24.5c1.9-6.3,4.3-12.4,7.1-18.4c0.2-0.5,0.4-1.1,0.6-1.6c0.2-0.6,0.5-1.1,0.8-1.7
		c9-16.8,21.5-31.4,36.7-43c17.3-13.7,36.2-20.6,56.1-20.6h2.8c1.3,0,2.6,0.1,3.8,0.4c0.3,0,0.5,0,0.8,0.1
		c13.1,1.1,25.5,6.7,34.8,16c9.5,9.6,14.8,22.7,14.5,36.3v2.4c0,1.6-0.2,3.2-0.5,4.8l-1.9,16.7c-1,9.1-8.7,15.9-17.8,15.9h-37.9
		c-6,0.3-11.8-2.6-15.2-7.6c-0.2-0.3-0.5-0.3-0.8-0.2l-0.1,0.1c-2.1,2.2-4,4.5-5.7,7c0.2,0.3,0.3,0.6,0.5,0.9h74.1
		c3.3-0.1,6.5,0.7,9.4,2.4c7,4.2,10.2,12.7,7.7,20.5l-12.8,38.5c-2.5,7.3-9.3,12.2-17,12.2L513.2,332.5L513.2,332.5z"/>
	<path id="Path_94" class="st0" d="M600.4,315.2h-87.2c-7.1,0-14.1-1.6-20.5-4.9c-6.3-3.2-11.4-8.4-14.5-14.7
		c-1.5-3-2.7-6.3-3.3-9.6c-0.7-3.3-1-6.7-1-10c0-6.5,1-13,3-19.2c1.9-6.1,4.2-12,6.9-17.7c0-0.2,0.1-0.4,0.2-0.6s0.2-0.4,0.2-0.6
		c7.9-14.6,18.8-27.3,32-37.3c14.3-11.3,29.4-16.9,45.4-16.9h2.7c0.3,0.3,0.7,0.4,1.2,0.4h1.6c9.2,0.7,17.8,4.6,24.4,11
		c6.3,6.4,9.8,15,9.5,24v2.3c0,0.5-0.1,0.9-0.2,1.4s-0.2,0.9-0.2,1.4l-2,17.3h-39.2l2-18.9c-8,0.7-15.5,3.8-21.6,9
		c-6.4,5.1-12,11.2-16.5,18.1c-0.8,1.3-1.5,2.5-2.2,3.5s-1.2,2.1-1.8,3.2c-0.2,0.9-0.6,1.8-1,2.6c-0.7,1.4-1.4,3.2-2.2,5.3
		c-0.3,0.3-0.5,0.6-0.6,1s-0.3,0.7-0.6,1c-0.5,1.8-1,3.6-1.6,5.3c-0.4,1.2-0.7,2.5-0.8,3.7c0,0.3,0.1,0.5,0.2,0.8
		c0.1,0.2,0.3,0.4,0.6,0.4h100.2L600.4,315.2z"/>
	<path id="Path_95" class="st0" d="M725.4,332.5c-13.7,0.3-26.9-5.2-36.2-15.1c-7.9-8.2-12.7-18.9-13.6-30.2c-1.3,2.6-2.5,5-3.4,7.3
		l-8.4,26c-2.3,7.2-9,12-16.5,12h-40.9c-5.6,0-10.8-2.7-14.1-7.1c-3.3-4.5-4.2-10.3-2.5-15.6l78.6-241.7c2.3-7.2,9-12,16.5-12h40.9
		c9.6,0,17.4,7.8,17.4,17.4c0,1.8-0.3,3.6-0.8,5.3l-29.7,91.6h0.3c3.2,0,6.4,0.3,9.5,0.9c3.2,0.6,6.3,1.4,9.3,2.6
		c11.1,3.8,20.3,11.7,25.7,22.1c4.7,9.1,7.1,19.1,7,29.3c0,5.5-0.6,10.9-1.7,16.3c-1.2,5.9-2.9,11.6-5.1,17.2h8.2
		c9.6,0,17.4,7.8,17.4,17.4c0,1.8-0.3,3.6-0.8,5.3l-12.6,38.9c-2.3,7.2-9,12-16.5,12L725.4,332.5L725.4,332.5L725.4,332.5z"/>
	<path id="Path_96" class="st0" d="M753.3,315.1h-27.9c-8.9,0.4-17.5-3.2-23.6-9.6c-5.9-6-9.1-14.2-9-22.6c0-1,0.1-2,0.2-3
		c0.1-1,0.2-2,0.2-3c0.3-0.8,0.5-1.6,0.8-2.6c0.3-0.9,0.5-1.9,0.8-3c0.8-2.6,1.7-5.3,2.8-8s2-5.6,2.8-8.4c0.5-1.1,1-2.1,1.4-3.1
		c0.4-1.1,0.7-2,1-2.8c1.3-3.6,2.4-7.2,3.3-10.6s1.6-6.7,2.2-9.8c-8.5,3.6-16.2,9-22.6,15.7c-7,7.2-13.3,15.1-18.7,23.6
		c-2.3,3.3-4.4,6.8-6.3,10.4c-1.8,3.5-3.4,6.9-4.7,10l-8.6,26.7h-40.9l78.6-241.7H726l-39.7,122.2c3.1-1.8,6.4-3.3,9.8-4.5
		c3.3-1.2,6.8-2.2,10.2-3c1,0,2.2-0.1,3.3-0.2c1.2-0.1,2.3-0.2,3.3-0.2c2.2,0,4.3,0.2,6.5,0.6c2.1,0.4,4.1,0.9,6.1,1.8
		c7.1,2.2,13.1,7.2,16.5,13.8s5.1,13.9,5.1,21.3c0,4.4-0.5,8.7-1.4,13c-1,5.1-2.5,10.1-4.5,15c-0.5,1.8-1.1,3.7-1.8,5.7
		s-1.2,3.9-1.8,5.7c-0.5,1.9-1.1,3.8-1.8,5.7c-0.7,2-1.2,3.9-1.8,5.7h32L753.3,315.1z"/>
	<path id="Path_97" class="st0" d="M794.2,332.5c-13.7,0.3-26.9-5.2-36.2-15.1c-8.9-9.3-13.8-21.6-13.7-34.5c0-1.8,0.1-3.6,0.4-5.4
		c0-0.1,0-0.3,0-0.5c0-1.9,0.3-3.7,0.8-5.4c0.2-0.6,0.4-1.2,0.6-1.9c0.2-0.7,0.4-1.5,0.6-2.4c0.1-0.4,0.2-0.7,0.3-1l26.7-83.7
		c2.3-7.2,9-12.1,16.6-12.1h20.2c-17.5-6.5-29.2-23.2-29.3-42c0-24.3,19.7-44.1,44.1-44.1s44.1,19.7,44.1,44.1
		c0.1,11.6-4.4,22.7-12.4,31c-5.3,5.7-12.2,9.8-19.7,11.9c8.9,3.1,13.8,12.7,10.9,21.7l-21,65.8h15.1c9.6,0,17.4,7.8,17.4,17.4
		c0,1.8-0.3,3.6-0.8,5.3l-12.6,38.9c-2.3,7.2-9,12-16.5,12H794.2L794.2,332.5L794.2,332.5z"/>
	<path id="Path_98" class="st0" d="M829.5,315.1h-35.4c-8.9,0.4-17.5-3.2-23.6-9.6c-5.9-6-9.1-14.2-9-22.6c0-1,0.1-2,0.2-3
		c0.1-1,0.2-2,0.2-3c0.3-0.8,0.5-1.6,0.8-2.6c0.3-0.9,0.5-1.9,0.8-3l26.7-83.7h41.2L803.1,276H842L829.5,315.1z M844.3,147.6
		c-10.1,10.5-26.8,10.8-37.2,0.7c-0.2-0.2-0.4-0.4-0.7-0.7c-5.1-5-7.9-11.9-7.8-19.1c0-14.8,12.1-26.8,26.9-26.7
		c7.1,0,13.9,2.8,18.9,7.9c5,5,7.8,11.8,7.7,18.9C852,135.6,849.3,142.5,844.3,147.6z"/>
	<path id="Path_99" class="st0" d="M877.9,332.5c-9.5,0.1-18.9-2.1-27.5-6.3c-9.4-4.6-17.1-12-22-21.3c-2.3-4.3-4.1-9-5.2-13.8
		c-1.1-4.6-1.6-9.4-1.6-14.1c0-1.7,0.1-3.4,0.4-5.1v-0.4c0-0.6,0-1.2,0.1-1.7c0.7-6.6,2-13.1,4.1-19.4c1.8-5.8,3.8-11.2,5.8-16.1
		c0-0.1,0.1-0.2,0.2-0.4c5.7-13.4,13.7-25.8,23.7-36.4c8.5-8.9,18.4-16.4,29.3-22c4.3-2.4,8.8-4.4,13.4-6c4.3-1.4,8.8-2.5,13.3-3.2
		c1.8-0.3,3.9-0.5,5.9-0.7c2.1-0.2,4.3-0.3,6.6-0.3c13.9-0.2,27.5,4.1,38.8,12.3c12.8,8.9,20.2,23.7,19.8,39.3
		c0,3.2-0.3,6.4-0.8,9.5c-0.7,3.4-1.6,6.8-2.9,10.1c-2.9,8.1-7.1,15.6-12.5,22.3h9.8c9.6,0,17.4,7.8,17.4,17.4
		c0,1.9-0.3,3.7-0.9,5.5l-13,38.9c-2.4,7.1-9,11.9-16.5,11.9L877.9,332.5L877.9,332.5L877.9,332.5z"/>
	<path id="Path_100" class="st0" d="M963.5,315.2h-85.7c-6.9,0-13.7-1.5-19.8-4.5c-6.2-3-11.2-7.9-14.3-14c-1.6-3-2.8-6.1-3.5-9.5
		c-0.8-3.4-1.2-6.8-1.2-10.2c0-0.9,0.1-1.7,0.2-2.6c0.1-1,0.2-2,0.2-3c0.5-5.4,1.7-10.7,3.3-15.9c1.7-5.4,3.5-10.3,5.3-14.7
		c4.8-11.6,11.7-22.1,20.3-31.3c7.2-7.6,15.6-14,25-18.7c3.4-2,7-3.6,10.8-4.9c3.4-1.1,6.9-2,10.4-2.6c1.6-0.3,3.2-0.5,4.7-0.6
		c1.6-0.1,3.3-0.2,5.1-0.2c10.3-0.1,20.3,3,28.7,9c8.2,5.7,13,15.2,12.6,25.2c0,2.2-0.2,4.4-0.6,6.5c-0.5,2.5-1.2,4.9-2.2,7.3
		c-2.9,7.9-7.3,15.2-13,21.4c-8.2,9.2-17.4,17.3-27.5,24.2h54.2L963.5,315.2z M900.3,231.9c-6.7,6.3-12.1,13.9-15.7,22.4
		c0,0.2-0.1,0.4-0.2,0.6s-0.2,0.4-0.2,0.6c9.9-5.5,19.2-12.1,27.7-19.4c5.1-4.4,9.5-9.5,13.2-15.1
		C915.7,221.3,906.9,225.3,900.3,231.9z"/>
	<path id="Path_101" class="st0" d="M972.5,332.5c-9.6,0-17.4-7.8-17.4-17.4c0-1.8,0.3-3.6,0.8-5.3l12.6-38.9
		c1.5-4.8,5.1-8.7,9.7-10.6l-10.1-7.3c-7.7-5.6-9.5-16.4-3.9-24.2c11-15.4,20.3-28.1,27.5-37.8c6.5-9.4,12.8-18.1,18.5-26.1
		c5.1-7,6.9-9.5,7.5-10.4c1.4-2.6,3.5-4.7,6-6.3c5.1-3.2,11.5-3.5,16.9-0.8l35,17.3c8.6,4.2,12.1,14.6,7.9,23.2
		c-0.6,1.2-1.3,2.3-2.1,3.3c-0.6,0.9-1.9,2.7-3.9,5.5c-1.2,1.8-2.5,3.6-4,5.6c3.7,6,6.7,12.4,9,19c3.9,11,5.9,22.6,5.9,34.2
		c0,22.2-7.1,40.7-21,55c-14.1,14.4-32.7,21.7-55.2,21.7L972.5,332.5L972.5,332.5L972.5,332.5z"/>
	<path id="Path_102" class="st0" d="M1055.1,298.7c-10.7,11-25,16.5-42.8,16.5h-39.7l12.6-38.9h27.1c6.8,0,11.9-1.6,15.1-4.9
		c3.3-3.3,4.9-8.4,4.9-15.5c0-3.5-0.4-7-1.2-10.4c-0.7-3.1-1.8-6-3.2-8.8c-5,6.8-9.2,12.6-12.8,17.5c-1.9,2.4-3.7,5-5.3,7.7
		L978.4,239c11.3-15.7,20.4-28.3,27.5-37.7c6.5-9.4,12.7-18.1,18.5-25.9c5.8-7.8,8.6-11.9,8.6-12.2l35,17.3
		c-0.3,0.3-1.8,2.5-4.7,6.7c-2.9,4.2-6.6,9.3-11,15.3c6.1,7.4,10.8,15.9,14,25s4.9,18.8,4.9,28.5
		C1071.2,273.4,1065.8,287.6,1055.1,298.7z"/>
	<path id="Path_103" class="st0" d="M1109.7,332.5c-13.5,0.3-26.5-5.1-35.7-15c-8.7-9.1-13.6-21.3-13.5-33.9c0-1.7,0.1-3.4,0.4-5.1
		v-0.4c0-1.4,0.2-2.8,0.5-4.2c0.3-1.3,0.6-2.5,1-3.6c0.3-1.1,0.7-2.3,1-3.3l7.5-22.9c-9.6-1.1-16.4-9.7-15.3-19.2
		c0.1-1.2,0.4-2.4,0.8-3.5l12.9-39c2.4-7.1,9-11.9,16.5-11.9h9l11-34c1.4-4.4,4.6-8.1,8.7-10.2c2.4-1.2,5.1-1.9,7.8-1.9
		c1.8,0,3.7,0.3,5.4,0.8l36.9,12.2c9.1,3,14,12.8,11.1,21.9l-3.7,11.3c9.4,1.6,15.8,10.6,14.1,20.1c-0.1,0.8-0.3,1.6-0.6,2.3
		l-12.6,39.1c-2.3,7.2-9,12.1-16.5,12.1h-8.2l-4.8,14.6h22.8c9.6,0,17.4,7.8,17.4,17.4c0,1.8-0.3,3.6-0.8,5.3l-12.6,38.9
		c-2.3,7.2-9,12-16.5,12L1109.7,332.5L1109.7,332.5L1109.7,332.5z"/>
	<path id="Path_104" class="st0" d="M1156.4,226.9h-20.8l-16.1,49.3h46.8l-12.6,38.9h-44c-8.7,0.3-17.1-3.1-23-9.5
		c-5.7-5.9-8.9-13.9-8.8-22.1c0-0.9,0.1-1.7,0.2-2.6c0.1-1,0.2-2,0.2-3c0.3-1,0.5-2,0.8-3s0.5-1.8,0.8-2.6l14.9-45.7h-22l12.9-39
		h21.6l14.9-46l36.9,12.2l-11,33.8h20.8L1156.4,226.9z"/>
</g>
<g id="Group_14" transform="translate(3.486 54.719)">
	<path id="Path_105" class="st1" d="M120.6,428.5c-1.7,0-3.4-0.6-4.7-1.6l-30.6-23.6c-1.6-1.3-2.7-3.1-3-5.2c-0.3-2,0.3-4.1,1.6-5.8
		c10.2-13.1,19.6-26.8,28.1-41c5.2-8.8,10.2-17.7,15-26.7c-1.4,0.4-2.7,0.7-4.1,1.1c-7.1,1.8-14.4,2.6-21.8,2.6c-1.1,0-2.1,0-3.2,0
		h-0.1c-4.1,0-8.5-0.2-12.8-0.6c-4.8-0.5-9.6-1.5-14.2-2.8c-11.7-2.8-22.3-9.1-30.3-18c-8.1-9-13.5-20.1-15.6-32.1
		c-0.3-1.7-0.5-3.2-0.8-4.6c-0.3-1.6-0.4-3.2-0.5-4.8c-0.3-1.6-0.4-3.3-0.4-4.9V252c0-1.8,0.2-3.6,0.5-5.3
		c2.2-24.8,11.9-49.2,28.7-72.6c15.6-21.9,33.7-41.9,54.1-59.4c6.1-5.3,12.2-10.3,18.2-14.8c6.1-4.6,12-8.7,17.7-12.2
		c0.2-0.1,0.4-0.2,0.7-0.3c0.1-0.1,0.2-0.2,0.4-0.2c0.8-0.6,1.5-1.1,2.3-1.5c7.6-4.8,15.6-9.1,23.8-12.9c8.7-4.1,17.8-7.2,27.2-9.2
		c3.2-0.6,6.1-1,9-1.5c3.2-0.4,6.4-0.7,9.6-0.7c6.4,0,12.8,0.9,18.9,2.7c6.4,1.9,12.4,5,17.7,9.2c6.2,4.3,11.2,10.2,14.5,17.1
		c2.8,6.2,4.2,12.9,4.2,19.7c0,2.2-0.2,4.4-0.5,6.6c-0.3,1.8-0.5,3.7-0.8,5.8c0,0.2-0.1,0.5-0.1,0.7c-1.2,5.3-3,10.5-5.2,15.5
		c-2.2,4.8-4.7,9.5-7.5,14c-5.9,9.6-12.5,18.8-19.9,27.3c-8.6,10-17.9,19.4-27.8,28.2c-2.9,2.6-5.9,5.3-8.9,7.9
		c-2.6,2.2-5.2,4.5-7.9,6.8l25.8,9.7c1.9,0.7,3.5,2.2,4.4,4.1c0.8,1.9,0.9,4,0.2,5.9c-12.1,31.8-25.7,63.7-40.6,94.7
		c-15,31.4-33.4,61-54.9,88.3C125.2,427.4,123,428.5,120.6,428.5z M84.6,272.8c2.4,0.5,4.8,0.9,7.1,1.3c2,0.3,4,0.5,6.1,0.5
		c12.1,0,24-3.5,34.1-10.2c11-7,21.5-14.8,31.4-23.4c0.4-0.7,0.9-1.3,1.5-1.8c0.1-0.1,0.2-0.2,0.4-0.4c0.8-2.2,1.7-4.5,2.6-6.8
		c1.2-3,2.3-5.9,3.3-8.7c0.7-1.9,2.2-3.5,4-4.4c0.2-0.1,0.5-0.2,0.7-0.3L154.7,193c-1.3-1.6-1.9-3.7-1.8-5.8c0.2-2.1,1.2-4,2.9-5.3
		c1.2-1,2.3-1.9,3.4-2.9c1.3-1.1,2.6-2.3,4-3.4c9.9-8.4,19.2-17.4,28-27c6.9-7.4,13-15.5,18.4-24.1l3.6-7.2c0.1-0.4,0.2-0.8,0.4-1.2
		c0.2-0.5,0.4-0.9,0.6-1.3h-0.1c-2.3,0-4.6,0.3-6.8,0.9c-2.9,0.8-5.7,1.8-8.4,3c-0.3,0.1-0.5,0.2-0.8,0.3c-2.1,0.7-4.1,1.5-6.1,2.5
		c-2.1,1-4.1,2.2-6,3.4c-0.1,0.1-0.3,0.2-0.4,0.2c-2.8,1.5-5.4,3-8,4.6c-2.5,1.5-4.5,2.8-6,3.7c-0.1,0.1-0.3,0.2-0.4,0.3
		c-3.4,1.9-6.9,4.2-10.3,6.6c-3.6,2.6-7.1,5.2-10.7,8.1c-16,12.9-30.6,27.4-43.6,43.3c-13.3,16.1-22.4,33-26.8,50.2
		c-0.5,1.9-0.9,3.9-1.2,5.9c-0.3,2.4-0.7,4.7-0.9,7.1v2.8c-0.1,3.8,0.7,7.5,2.1,11C80.6,271,82.5,272.5,84.6,272.8L84.6,272.8z"/>
	<path id="Path_106" class="st1" d="M267.5,318.1c-11,0.4-21.7-4-29.2-12.1c-7.2-7.5-11.3-17.5-11.2-27.9c0-1.4,0.1-2.7,0.3-4.1
		c0.1-0.6,0.1-1.2,0.1-1.8c0-0.8,0.1-1.7,0.4-2.5c0.2-0.7,0.5-1.5,0.7-2.3s0.5-1.7,0.7-2.7l0.1-0.5l26.7-83.7c1-3.2,4-5.4,7.4-5.4
		h41.2c4.3,0,7.8,3.5,7.8,7.8c0,0.8-0.1,1.6-0.4,2.4l-25,78.3h45.1c2.3,0,4.5,1,6,2.8s2.1,4.2,1.6,6.5l-7.6,38.9
		c-0.7,3.6-3.9,6.3-7.6,6.3H267.5L267.5,318.1z M298.6,158.6c-9.2,0.1-18.1-3.7-24.4-10.4c-6.5-6.5-10.2-15.3-10.1-24.5
		c0-19.1,15.6-34.6,34.7-34.5c9.2,0,18,3.7,24.5,10.2c6.4,6.4,10,15.2,9.9,24.3c0.1,9.1-3.4,17.9-9.8,24.4
		C316.9,154.9,307.9,158.8,298.6,158.6z"/>
	<path id="Path_107" class="st1" d="M431,318.1c-11,0.4-21.6-3.9-29.2-11.8c-7.3-7.5-11.4-17.7-11.2-28.2c0-2.4,0.2-4.9,0.7-7.2
		c0.4-2.2,1-4.4,1.5-6.3s1.1-3.7,1.6-5.4c0.5-1.8,1.1-3.4,1.6-5.1l3.6-11.7c-6.4,5.8-12.2,12.3-17.3,19.2
		c-5.7,7.6-10.5,15.9-14.1,24.7l-8.5,26.5c-1,3.2-4,5.4-7.4,5.4h-40.8c-2.5,0-4.8-1.2-6.3-3.2s-1.9-4.6-1.1-7l41.2-127.3
		c1-3.2,4-5.4,7.4-5.4h40.9c2.5,0,4.8,1.2,6.3,3.2c0.1,0.1,0.1,0.2,0.2,0.3c2.3-0.7,4.6-1.3,7-1.7c1.8-0.6,3.7-1,5.6-1.2
		c1.7-0.2,3.4-0.2,5.2-0.2c2.6,0,5.3,0.2,7.9,0.7c2.6,0.4,5.1,1.2,7.5,2.2c8.9,2.9,16.3,9.1,20.6,17.4c4,7.7,6,16.2,6,24.8
		c0,4.8-0.5,9.6-1.5,14.3c-1.1,5.4-2.6,10.6-4.4,15.8c-0.1,0.2-0.1,0.4-0.2,0.5c-0.6,1.5-1.2,3.1-1.6,4.6c-0.5,2-1.1,4-1.6,5.8
		c-0.2,0.7-0.5,1.4-0.7,1.9H471c4.3,0,7.8,3.5,7.8,7.7c0,0.8-0.1,1.7-0.4,2.5l-13,38.9c-1,3.2-4,5.3-7.4,5.3L431,318.1L431,318.1z"
		/>
	<path id="Path_108" class="st1" d="M511.5,318.1c-8.4,0.1-16.6-1.9-24-5.8c-7.7-4-13.9-10.3-17.9-18c-1.9-3.7-3.2-7.6-4.1-11.7
		c-0.8-3.8-1.1-7.7-1.1-11.5c0-7.3,1.1-14.6,3.3-21.6c1.9-6.1,4.2-12.1,6.9-17.9c0.1-0.4,0.3-0.9,0.5-1.3c0.1-0.4,0.3-0.7,0.4-1
		c8.4-15.6,20-29.1,34.1-39.9c15.6-12.3,32.5-18.6,50.2-18.6h2.8c0.8,0,1.7,0.1,2.5,0.4h0.3c0.3,0,0.5,0,0.8,0
		c10.9,0.9,21.2,5.6,29,13.2c7.8,7.8,12,18.5,11.7,29.5v2.4c0,1.1-0.1,2.1-0.4,3.2c0,0.2-2,17.7-2,17.7c-0.5,3.9-3.8,6.9-7.7,6.9
		h-39.3c-4.3,0-7.8-3.4-7.8-7.7c0-0.3,0-0.6,0-0.9l0.8-7.9c-2.8,1.3-5.5,3-7.8,4.9c-5.8,4.6-10.8,10-14.8,16.2
		c-0.7,1.2-1.4,2.4-2.1,3.4c-0.4,0.6-0.7,1.2-1,1.8c-0.3,1-0.8,2-1.2,3c-0.6,1.3-1.2,2.9-1.9,4.8c-0.2,0.6-0.5,1.1-0.8,1.7h102.5
		c2.5,0,4.8,1.2,6.3,3.2s1.8,4.6,1.1,7l-13,38.9c-1.1,3.2-4,5.3-7.4,5.3L511.5,318.1L511.5,318.1L511.5,318.1z"/>
	<path id="Path_109" class="st1" d="M723.8,318.1c-11,0.4-21.7-4-29.2-12.1c-7.2-7.5-11.3-17.5-11.2-27.9c0-1.4,0.1-2.7,0.3-4.1
		c0.1-0.6,0.1-1.2,0.1-1.8c0-0.8,0.1-1.7,0.4-2.5c0.2-0.7,0.5-1.5,0.7-2.3s0.5-1.7,0.7-2.7c0.9-3.1,1.9-6,3-8.9
		c1-2.5,1.8-5.1,2.5-7.7c0.1-0.5,0.3-1,0.5-1.4c0.4-0.8,0.7-1.6,1-2.4c0.4-1,0.7-1.8,0.9-2.5c0.1-0.4,0.3-0.7,0.4-1.1
		c-1.5,1.3-3.1,2.8-4.5,4.3c-6.7,6.8-12.6,14.2-17.6,22.2c-2.2,3.2-4.2,6.5-6,9.9c-1.7,3.2-3.2,6.3-4.3,9.1l-8.5,26.4
		c-1,3.2-4,5.4-7.4,5.4h-40.9c-2.5,0-4.8-1.2-6.3-3.2s-1.9-4.6-1.1-7l78.6-241.7c1-3.2,4-5.3,7.4-5.4h40.9c2.5,0,4.8,1.2,6.3,3.2
		c1.5,2,1.9,4.6,1.1,7L697,177.2c1.9-0.5,3.8-1.1,5.7-1.5c0.6-0.1,1.2-0.2,1.8-0.2c0.8,0,1.6-0.1,2.5-0.2c1.4-0.1,2.8-0.2,4.2-0.2
		c2.6,0,5.2,0.2,7.8,0.7c2.6,0.4,5.1,1.2,7.5,2.2c8.9,2.9,16.3,9.2,20.6,17.5c4,7.7,6,16.2,6,24.9c0,4.9-0.5,9.7-1.5,14.5
		c-1.1,5.5-2.7,10.8-4.8,16c-0.5,1.8-1.1,3.7-1.8,5.6c-0.6,1.9-1.2,3.7-1.7,5.4c-0.2,0.5-0.3,1-0.5,1.6h21.3c2.5,0,4.8,1.2,6.3,3.2
		s1.9,4.6,1.1,7L759,312.6c-1,3.2-4,5.4-7.4,5.4h-27.9v0.1H723.8z"/>
	<path id="Path_110" class="st1" d="M792.5,318.1c-11,0.4-21.7-4-29.2-12.1c-7.2-7.5-11.3-17.5-11.2-27.9c0-1.4,0.1-2.7,0.3-4
		c0.1-0.6,0.1-1.2,0.1-1.8c0-0.8,0.1-1.7,0.4-2.5c0.2-0.7,0.5-1.5,0.7-2.3s0.5-1.7,0.7-2.7l0.1-0.5l26.7-83.7c1-3.2,4-5.4,7.4-5.4
		h41.2c4.3,0,7.8,3.5,7.8,7.8c0,0.8-0.1,1.6-0.4,2.4l-25,78.3h28.2c4.3,0,7.8,3.5,7.8,7.8c0,0.8-0.1,1.6-0.4,2.4l-12.6,38.9
		c-1,3.2-4,5.4-7.4,5.4L792.5,318.1L792.5,318.1L792.5,318.1z M823.6,158.6c-9.2,0.1-18.1-3.7-24.4-10.4
		c-6.5-6.5-10.2-15.3-10.1-24.5c0.1-19.1,15.6-34.6,34.7-34.5c9.2,0,17.9,3.7,24.4,10.2c6.4,6.4,10,15.2,9.9,24.3
		c0.1,9.1-3.4,17.9-9.8,24.4C841.9,154.9,832.9,158.8,823.6,158.6L823.6,158.6z"/>
	<path id="Path_111" class="st1" d="M876.2,318.1c-8.1,0-16-1.8-23.2-5.3c-7.6-3.7-13.8-9.8-17.8-17.2c-2-3.6-3.4-7.4-4.3-11.4
		c-0.9-3.9-1.3-8-1.4-12c0-1.2,0.1-2.5,0.3-3.7c0.1-0.6,0.1-1.2,0.1-1.8c0-0.3,0-0.5,0-0.8c0.6-5.9,1.8-11.8,3.7-17.5
		c1.8-5.6,3.6-10.7,5.5-15.4c5.2-12.4,12.6-23.8,21.8-33.7c7.8-8.2,16.8-15,26.9-20.1c3.8-2.2,7.8-4,12-5.4
		c3.8-1.3,7.7-2.2,11.7-2.9c1.7-0.3,3.5-0.5,5.2-0.7c1.8-0.2,3.7-0.2,5.8-0.2c11.9-0.1,23.6,3.5,33.2,10.5
		c10.3,7.1,16.2,19,15.8,31.4c0,2.6-0.2,5.3-0.7,7.9c-0.6,2.9-1.4,5.8-2.5,8.6c-3.2,8.8-8.1,16.8-14.3,23.8
		c-3.5,4-7.2,7.8-11.2,11.4H991c2.5,0,4.8,1.2,6.3,3.2s1.9,4.6,1.2,6.9l-12.2,38.9c-1,3.2-4,5.5-7.4,5.4L876.2,318.1L876.2,318.1z"
		/>
	<path id="Path_112" class="st1" d="M970.9,318.1c-2.5,0-4.8-1.2-6.3-3.2s-1.9-4.6-1.1-7l12.6-38.9c1-3.2,4-5.4,7.4-5.4h20.9
		c-0.2-0.2-0.5-0.3-0.7-0.5l-31.4-22.8c-3.5-2.5-4.2-7.3-1.8-10.8c11.2-15.6,20.5-28.3,27.6-37.9c6.3-9.1,12.6-17.9,18.4-25.9
		s7.5-10.4,8-11.1c1.9-3.8,6.6-5.4,10.4-3.4l35,17.3c3.8,1.9,5.4,6.5,3.6,10.4c-0.3,0.6-0.6,1.1-1.1,1.6c-0.5,0.7-1.9,2.7-4.2,6
		c-2.1,3.1-4.7,6.7-7.7,10.9c4.9,6.9,8.8,14.4,11.6,22.4c3.5,10,5.3,20.5,5.4,31.1c0,19.6-6.1,35.8-18.3,48.3
		c-12.2,12.5-28.5,18.9-48.4,18.9H970.9L970.9,318.1L970.9,318.1z M1015.3,260.3c-0.7,1.4-1.8,2.6-3.1,3.3c2.9-0.2,6.3-0.7,8.1-2.6
		c1.7-1.7,2.6-5.2,2.6-10v-1.3l-3,4.1C1016.7,258.2,1015.6,259.7,1015.3,260.3L1015.3,260.3z"/>
	<path id="Path_113" class="st1" d="M1108.1,318.1c-10.8,0.3-21.3-4-28.7-11.9c-7.1-7.3-11-17.2-10.9-27.4c0-1.2,0.1-2.5,0.3-3.7
		c0.1-0.6,0.1-1.2,0.1-1.8c0-0.6,0.1-1.3,0.2-1.9c0.3-1.1,0.6-2.2,0.8-3.2c0.3-1,0.6-2,0.9-2.9l11.6-35.5h-11.3
		c-4.3,0-7.8-3.5-7.8-7.8c0-0.8,0.1-1.6,0.4-2.4l12.9-39c1.1-3.2,4-5.3,7.4-5.3h16l13.2-40.6c0.6-2,2-3.6,3.9-4.6
		c1.1-0.6,2.3-0.8,3.5-0.9c0.8,0,1.7,0.1,2.4,0.4l36.9,12.2c4.1,1.3,6.3,5.7,5,9.8l-7.8,23.7h10.1c4.3,0,7.8,3.5,7.8,7.8
		c0,0.8-0.1,1.6-0.4,2.4l-12.6,39.1c-1,3.2-4,5.4-7.4,5.4h-15.2l-11,33.8h36c2.5,0,4.8,1.2,6.3,3.2s1.9,4.6,1.1,7l-12.6,38.9
		c-1,3.2-4,5.4-7.4,5.4L1108.1,318.1L1108.1,318.1z"/>
</g>
<g id="Group_15" transform="translate(6.531 59.373)">
	<path id="Path_114" class="st2" d="M225.9,171.8c-8.4,9.8-17.5,18.9-27.1,27.5c-2.9,2.6-5.8,5.2-8.8,7.9c-3,2.6-6.1,5.2-9.2,7.9
		l-24.8-30c1.3-1.1,2.6-2.1,3.7-3.1s2.4-2.1,3.7-3.1c10.2-8.7,19.9-18,28.9-27.9c7.3-7.9,13.8-16.4,19.4-25.5
		c0.3-0.5,0.7-1.4,1.4-2.8c0.7-1.3,1.4-2.8,2.2-4.3c0.3-0.5,0.5-0.9,0.6-1.2c0.1-0.2,0.2-0.5,0.2-0.8c0.8-1.8,1.5-3.5,2.2-5.1
		c0.5-1.1,0.9-2.3,1-3.5v-0.4l-0.4-0.4c-1.1-1.1-2.5-1.8-3.9-2.2c-1.8-0.4-3.7-0.6-5.5-0.6c-2.9,0-5.8,0.4-8.6,1.2
		c-3.4,0.9-6.7,2.1-9.8,3.5c-2.4,0.8-4.8,1.8-7.1,2.9s-4.5,2.4-6.7,3.7c-2.9,1.6-5.6,3.2-8.2,4.7c-2.6,1.6-4.7,2.9-6.3,3.9
		c-3.6,2.1-7.4,4.5-11,7.1s-7.4,5.4-11,8.2c-16.4,13.2-31.4,28.1-44.8,44.4c-14.2,17.1-23.6,34.8-28.3,53.2
		c-0.6,2.2-1.1,4.4-1.4,6.7c-0.4,2.6-0.7,5.2-1,7.9v3.1c0,4.8,0.9,9.6,2.8,14c1.8,4.3,5.6,7.5,10.2,8.5c2.6,0.5,5.2,1,7.7,1.4
		c2.4,0.4,4.8,0.6,7.3,0.6c13.6,0,26.9-4,38.3-11.4c11.7-7.4,22.8-15.7,33.2-24.9c0.3-0.5,0.6-1,1-1.4s0.9-0.7,1.4-1
		c1.1-2.9,2.2-5.8,3.3-8.9c1.2-3,2.3-6,3.3-8.9l36.5,13.8c-12.1,31.8-25.5,63.2-40.3,94.1s-32.9,60-54,86.9l-30.6-23.6
		c10.4-13.3,20-27.3,28.7-41.8c8.6-14.5,16.6-29.3,24-44.2c-7,2.9-14.2,5.2-21.6,7.1c-7.4,1.8-15.1,2.6-22.8,2.4
		c-4.2,0-8.3-0.2-12.4-0.6c-4.3-0.4-8.6-1.3-12.8-2.6c-10.3-2.4-19.6-7.9-26.7-15.8c-7.1-8-11.9-17.8-13.8-28.3
		c-0.3-1.6-0.5-3.1-0.8-4.5s-0.4-2.7-0.4-4.1c-0.3-1.4-0.4-2.7-0.4-4.1v-8.5c0-1.5,0.1-2.9,0.4-4.4c2.1-23.6,11.2-46.6,27.3-69.1
		c15.2-21.4,32.9-40.9,52.8-58.1c6-5.2,12-10.1,17.9-14.5c5.9-4.5,11.6-8.4,17.1-11.8c0.5-0.3,1.1-0.6,1.6-1s1-0.7,1.6-1
		c7.5-4.7,15.2-8.9,23.2-12.6c8.2-3.8,16.7-6.7,25.5-8.7c2.9-0.5,5.7-1,8.4-1.4c2.8-0.4,5.6-0.6,8.4-0.6c5.7,0,11.3,0.8,16.7,2.4
		c5.5,1.6,10.6,4.3,15.1,7.8c5.2,3.6,9.4,8.4,12.2,14.2c2.3,5.2,3.6,10.8,3.5,16.5c0,1.8-0.1,3.7-0.4,5.5s-0.5,3.8-0.8,5.9
		c-1.1,4.8-2.6,9.5-4.7,14c-2.1,4.5-4.4,8.9-7.1,13.2C239.5,154.8,233.1,163.6,225.9,171.8z"/>
	<path id="Path_115" class="st2" d="M320,307.3h-57.1c-8.9,0.3-17.5-3.2-23.6-9.6c-5.9-6-9.1-14.2-9-22.6c0-1,0.1-2,0.2-3
		c0.1-1,0.2-2,0.2-3c0.3-0.8,0.5-1.6,0.8-2.6c0.3-0.9,0.5-1.9,0.8-3l26.7-83.7h41.3L272,268.2h55.7L320,307.3z M313,139.8
		c-10.1,10.5-26.8,10.8-37.2,0.7c-0.2-0.2-0.4-0.4-0.7-0.7c-5.1-5-7.9-11.9-7.9-19.1c0-14.8,12.1-26.8,26.9-26.7
		c7.1,0,13.9,2.8,18.9,7.9c5,5,7.8,11.8,7.7,18.9C320.7,127.8,318,134.7,313,139.8z"/>
	<path id="Path_116" class="st2" d="M453.5,307.3h-27.1c-8.8,0.3-17.4-3.1-23.6-9.5c-5.9-6.1-9.2-14.3-9-22.8c0-1.9,0.2-3.8,0.6-5.7
		c0.4-2,0.9-3.9,1.4-5.7c0.5-1.8,1-3.6,1.5-5.3c0.5-1.7,1-3.3,1.6-4.9c1-3.4,2.1-6.8,3.1-10.2s2.1-6.8,3.1-10.2
		c0.3-0.5,0.5-1,0.6-1.6c0.1-0.5,0.2-1,0.2-1.6c0.5-1.4,1-2.9,1.4-4.3c0.4-1.6,0.7-3.1,1-4.7c-2.6,1.1-5.1,2.4-7.5,3.9
		c-3.1,2-6,4.2-8.6,6.7c-7.7,6.7-14.6,14.2-20.6,22.4c-6.2,8.2-11.3,17.2-15.1,26.7l-8.6,26.7H307L348.1,180H389l-2.8,8.2
		c2.9-1.6,5.8-2.9,8.8-4.1c3-1.2,6.1-2,9.2-2.6c1.5-0.5,3-0.8,4.5-1c1.4-0.1,3-0.2,4.5-0.2c2.2,0,4.4,0.2,6.5,0.6
		c2.1,0.4,4.1,0.9,6.1,1.8c7.1,2.2,13.1,7.2,16.5,13.8s5.1,13.8,5.1,21.2c0,4.3-0.5,8.6-1.4,12.8c-1,5-2.4,9.9-4.1,14.7
		c-0.8,1.9-1.5,3.8-2,5.7c-0.5,2-1,3.9-1.6,5.7c-0.3,0.8-0.5,1.5-0.8,2.2c-0.2,0.5-0.4,1.1-0.4,1.8c-0.5,1.3-0.9,2.6-1.2,3.9
		c-0.3,1.3-0.7,2.6-1.2,3.9h31.5L453.5,307.3z"/>
	<path id="Path_117" class="st2" d="M605.5,307.3h-98.6c-7.1,0-14.1-1.6-20.5-4.9c-6.3-3.2-11.4-8.4-14.5-14.7
		c-1.5-3-2.7-6.3-3.3-9.6c-0.7-3.3-1-6.7-1-10c0-6.5,1-13,3-19.2c1.9-6.1,4.2-12,6.9-17.7c0-0.2,0.1-0.4,0.2-0.6s0.2-0.4,0.2-0.6
		c7.9-14.6,18.8-27.3,32-37.3c14.3-11.3,29.4-16.9,45.4-16.9h2.7c0.3,0.3,0.7,0.4,1.2,0.4h1.6c9.2,0.7,17.8,4.6,24.4,11
		c6.3,6.4,9.8,15,9.5,24v2.3c0,0.5-0.1,0.9-0.2,1.4s-0.2,0.9-0.2,1.4l-2,17.3H553l2-18.9c-8,0.7-15.5,3.8-21.6,9
		c-6.4,5.1-12,11.2-16.5,18.1c-0.8,1.3-1.5,2.5-2.2,3.5s-1.2,2.1-1.8,3.1c-0.2,0.9-0.6,1.8-1,2.6c-0.7,1.4-1.4,3.2-2.2,5.3
		c-0.3,0.3-0.5,0.6-0.6,1s-0.3,0.7-0.6,1c-0.5,1.8-1,3.6-1.6,5.3c-0.4,1.2-0.7,2.5-0.8,3.7c0,0.3,0.1,0.5,0.2,0.8
		c0.1,0.2,0.3,0.4,0.6,0.4h111.6L605.5,307.3z"/>
	<path id="Path_118" class="st2" d="M747,307.3h-27.9c-8.9,0.4-17.5-3.2-23.6-9.6c-5.9-6-9.1-14.2-9-22.6c0-1,0.1-2,0.2-3
		c0.1-1,0.2-2,0.2-3c0.3-0.8,0.5-1.6,0.8-2.6s0.5-1.9,0.8-3c0.8-2.6,1.7-5.3,2.8-8.1s2-5.6,2.8-8.4c0.5-1.1,1-2.1,1.4-3.1
		c0.4-1.1,0.7-2,1-2.8c1.3-3.6,2.4-7.2,3.3-10.6c0.9-3.4,1.6-6.7,2.2-9.8c-8.5,3.6-16.2,9-22.6,15.7c-7,7.2-13.3,15.1-18.7,23.6
		c-2.3,3.3-4.4,6.8-6.3,10.4c-1.8,3.5-3.4,6.9-4.7,10l-8.7,26.7h-40.9l78.6-241.6h40.9l-39.7,122.2c3.1-1.8,6.4-3.3,9.8-4.5
		c3.3-1.2,6.8-2.2,10.2-3c1,0,2.2-0.1,3.3-0.2c1.2-0.1,2.3-0.2,3.3-0.2c2.2,0,4.3,0.2,6.5,0.6c2.1,0.4,4.1,0.9,6.1,1.8
		c7.1,2.2,13.1,7.2,16.5,13.8s5.1,13.9,5.1,21.3c0,4.4-0.5,8.7-1.4,13c-1,5.1-2.5,10.1-4.5,15c-0.5,1.8-1.1,3.7-1.8,5.7
		s-1.2,3.9-1.8,5.7c-0.5,1.9-1.1,3.8-1.8,5.7c-0.7,2-1.2,3.9-1.8,5.7h31.7L747,307.3z"/>
	<path id="Path_119" class="st2" d="M823.2,307.3h-35.4c-8.9,0.4-17.5-3.2-23.6-9.6c-5.9-6-9.1-14.2-9-22.6c0-1,0.1-2,0.2-3
		c0.1-1,0.2-2,0.2-3c0.3-0.8,0.5-1.6,0.8-2.6c0.3-0.9,0.5-1.9,0.8-3l26.7-83.7h41.2l-28.3,88.4h38.9L823.2,307.3z M838,139.8
		c-10.1,10.5-26.8,10.8-37.2,0.7c-0.2-0.2-0.4-0.4-0.7-0.7c-5.1-5-7.9-11.9-7.8-19.1c0-14.8,12.1-26.8,26.9-26.7
		c7.1,0,13.9,2.8,18.9,7.9c5,5,7.8,11.8,7.7,18.9C845.7,127.8,843,134.7,838,139.8L838,139.8z"/>
	<path id="Path_120" class="st2" d="M974.1,307.3H871.6c-6.9,0-13.7-1.5-19.8-4.5c-6.2-3-11.2-7.9-14.3-14c-1.6-3-2.8-6.1-3.5-9.5
		c-0.8-3.4-1.2-6.8-1.2-10.2c0-0.9,0.1-1.7,0.2-2.6c0.1-1,0.2-2,0.2-3c0.5-5.4,1.7-10.7,3.3-15.9c1.7-5.4,3.5-10.3,5.3-14.7
		c4.8-11.6,11.7-22.1,20.3-31.3c7.2-7.6,15.6-14,25-18.7c3.4-2,7-3.6,10.8-4.9c3.4-1.1,6.9-2,10.4-2.6c1.6-0.3,3.2-0.5,4.7-0.6
		c1.6-0.1,3.3-0.2,5.1-0.2c10.3-0.1,20.3,3,28.7,9c8.2,5.7,13,15.2,12.6,25.2c0,2.2-0.2,4.4-0.6,6.5c-0.5,2.5-1.2,4.9-2.2,7.3
		c-2.9,7.9-7.3,15.2-13,21.4c-8.2,9.1-17.4,17.3-27.5,24.2h70.3L974.1,307.3z M894,224c-6.7,6.3-12.1,13.9-15.7,22.4
		c0,0.2-0.1,0.4-0.2,0.6s-0.2,0.4-0.2,0.6c9.9-5.5,19.2-12.1,27.7-19.4c5.1-4.4,9.5-9.5,13.2-15.1C909.4,213.5,900.6,217.4,894,224z
		"/>
	<path id="Path_121" class="st2" d="M1048.8,290.8c-10.7,11-25,16.5-42.8,16.5h-39.7l12.6-38.9h27.1c6.8,0,11.9-1.6,15.1-4.9
		c3.3-3.3,4.9-8.4,4.9-15.5c0-3.5-0.4-7-1.2-10.4c-0.7-3.1-1.8-6-3.2-8.8c-5,6.8-9.2,12.6-12.8,17.5c-1.9,2.4-3.7,5-5.3,7.7
		L972,231.2c11.3-15.7,20.4-28.3,27.5-37.7c6.5-9.4,12.7-18.1,18.5-25.9c5.8-7.9,8.6-11.9,8.6-12.2l35,17.3
		c-0.3,0.3-1.8,2.5-4.7,6.7c-2.9,4.2-6.6,9.3-11,15.3c6.1,7.4,10.8,15.9,14,25s4.9,18.8,4.9,28.5
		C1064.9,265.5,1059.5,279.8,1048.8,290.8z"/>
	<path id="Path_122" class="st2" d="M1150.2,219.1h-20.8l-16.1,49.3h46.8l-12.6,38.9h-44c-8.7,0.3-17.1-3.1-23-9.5
		c-5.7-5.9-8.9-13.9-8.8-22.1c0-0.9,0.1-1.7,0.2-2.6c0.1-1,0.2-2,0.2-3c0.3-1,0.5-2,0.8-3s0.5-1.8,0.8-2.6l14.9-45.7h-22l12.9-39
		h21.6l14.9-46l36.9,12.2l-11,33.8h20.8L1150.2,219.1z"/>
</g>
<g id="Group_16" transform="translate(146.632 9.27)">
	<path id="Path_123" class="st2" d="M281.5,63.2L240.3,200l-26.7-7.9l37.6-125l-76.9,10.4L170.7,50l89.6-11.8l7.3-24.1l26.7,8.2
		L290.6,34l29.8-3.9l3.6,27.5L281.5,63.2z"/>
	<path id="Path_124" class="st2" d="M390.2,196h-20c-6.3,0.2-12.5-2.3-16.8-6.9c-4.2-4.3-6.5-10.1-6.5-16.1c0-0.7,0-1.4,0.2-2.1
		c0.1-0.7,0.1-1.4,0.2-2.1c0.2-0.6,0.4-1.2,0.5-1.8c0.2-0.7,0.4-1.4,0.5-2.1c0.5-1.9,1.2-3.8,2-5.8c0.7-2,1.4-4,2-6
		c0.4-0.7,0.7-1.5,1-2.3c0.3-0.7,0.5-1.4,0.7-2c0.9-2.6,1.8-5.1,2.4-7.6c0.7-2.4,1.2-4.8,1.6-7c-6.1,2.6-11.6,6.4-16.1,11.2
		c-5,5.1-9.5,10.8-13.3,16.8c-1.6,2.4-3.1,4.9-4.5,7.4c-1.3,2.5-2.5,4.9-3.4,7.1l-6.2,19.1h-29.2l56.2-172.7h29.2l-28.4,87.4
		c2.2-1.3,4.6-2.4,7-3.2c2.4-0.8,4.8-1.5,7.3-2.1c0.8,0,1.6-0.1,2.4-0.2c0.9-0.1,1.6-0.2,2.4-0.2c1.5,0,3.1,0.2,4.6,0.4
		c1.5,0.2,3,0.7,4.4,1.3c5.1,1.6,9.3,5.1,11.8,9.9c2.4,4.7,3.7,9.9,3.6,15.2c0,3.1-0.4,6.3-1,9.3c-0.8,3.7-1.8,7.3-3.2,10.7
		c-0.4,1.3-0.8,2.7-1.2,4.1c-0.5,1.4-0.9,2.8-1.3,4.1s-0.8,2.7-1.2,4.1c-0.5,1.4-0.9,2.8-1.3,4.1h22.7L390.2,196z"/>
	<path id="Path_125" class="st2" d="M484.9,196h-61.2c-4.9,0-9.8-1.1-14.2-3.2c-4.4-2.1-8-5.6-10.3-9.9c-1.1-2.1-2-4.4-2.5-6.7
		c-0.5-2.4-0.8-4.9-0.9-7.3c0-0.6,0-1.2,0.2-1.8c0.1-0.7,0.1-1.4,0.2-2.1c0.4-3.9,1.2-7.7,2.4-11.4c1.2-3.9,2.5-7.4,3.8-10.5
		c3.4-8.2,8.3-15.8,14.5-22.3c5.1-5.5,11.2-10,17.9-13.3c2.5-1.4,5-2.6,7.7-3.5c2.4-0.8,4.9-1.4,7.4-1.8c1.1-0.2,2.3-0.3,3.4-0.4
		s2.3-0.2,3.6-0.2c7.4-0.1,14.5,2.2,20.5,6.4c5.9,4.1,9.2,10.8,9,18c0,1.6-0.1,3.1-0.4,4.6c-0.3,1.8-0.9,3.5-1.6,5.2
		c-2.1,5.6-5.2,10.9-9.2,15.3c-5.8,6.5-12.4,12.3-19.7,17.3h38.8L484.9,196z M439.7,136.5c-4.8,4.5-8.6,10-11.2,16
		c0,0.2,0,0.3-0.2,0.4c-0.1,0.1-0.1,0.3-0.2,0.4c7.1-3.9,13.7-8.6,19.8-13.9c3.7-3.1,6.8-6.8,9.4-10.8
		C450.7,129,444.4,131.8,439.7,136.5z"/>
</g>
<g>
	<circle id="Ellipse_4" class="st0" cx="972.2" cy="309" r="5.6"/>
	<g>
		<rect id="Rectangle_19" x="541.9" y="212" class="st0" width="14.5" height="9.2"/>
		<ellipse id="Ellipse_3" class="st0" cx="588.8" cy="308.6" rx="25.3" ry="5.5"/>
		<ellipse id="Ellipse_5" class="st0" cx="551.8" cy="306.8" rx="12.9" ry="7.7"/>
		<rect id="Rectangle_20" x="262.5" y="208.5" class="st0" width="19.2" height="13.7"/>
		<rect id="Rectangle_21" x="278.6" y="215.3" class="st0" width="10.7" height="8.1"/>
		<path id="Path_126" class="st0" d="M253.1,232.7l-43.5,39.8l27.2,15.1L253.1,232.7z"/>
		<circle class="st0" cx="212.7" cy="273.6" r="6.5"/>
		<circle class="st0" cx="538.9" cy="308.6" r="6.5"/>
		<ellipse class="st0" cx="262.5" cy="220.6" rx="6.5" ry="6.5"/>
		<circle class="st0" cx="232.3" cy="287.6" r="6.5"/>
	</g>
</g>
</svg>
